<?xml version="1.0" encoding="UTF-8" standalone="no"?>
<!-- Created with Inkscape (http://www.inkscape.org/) -->
<svg
   xmlns:dc="http://purl.org/dc/elements/1.1/"
   xmlns:cc="http://creativecommons.org/ns#"
   xmlns:rdf="http://www.w3.org/1999/02/22-rdf-syntax-ns#"
   xmlns:svg="http://www.w3.org/2000/svg"
   xmlns="http://www.w3.org/2000/svg"
   xmlns:xlink="http://www.w3.org/1999/xlink"
   xmlns:sodipodi="http://sodipodi.sourceforge.net/DTD/sodipodi-0.dtd"
   xmlns:inkscape="http://www.inkscape.org/namespaces/inkscape"
   version="1.0"
   width="128"
   height="128"
   id="svg14662"
   sodipodi:version="0.32"
   inkscape:version="0.46"
   sodipodi:docname="public_scientist.svg"
   sodipodi:docbase="D:\var\mediawiki\svg"
   inkscape:output_extension="org.inkscape.output.svg.inkscape">
  <metadata
     id="metadata87">
    <rdf:RDF>
      <cc:Work
         rdf:about="">
        <dc:format>image/svg+xml</dc:format>
        <dc:type
           rdf:resource="http://purl.org/dc/dcmitype/StillImage" />
      </cc:Work>
    </rdf:RDF>
  </metadata>
  <sodipodi:namedview
     inkscape:window-height="720"
     inkscape:window-width="1280"
     inkscape:pageshadow="2"
     inkscape:pageopacity="0.0"
     borderopacity="1.0"
     bordercolor="#666666"
     pagecolor="#ffffff"
     id="base"
     inkscape:zoom="2.5548017"
     inkscape:cx="56.876625"
     inkscape:cy="53.797053"
     inkscape:window-x="-8"
     inkscape:window-y="-8"
     inkscape:current-layer="svg14662"
     showgrid="false" />
  <defs
     id="defs14664">
    <inkscape:perspective
       sodipodi:type="inkscape:persp3d"
       inkscape:vp_x="0 : 64 : 1"
       inkscape:vp_y="0 : 1000 : 0"
       inkscape:vp_z="128 : 64 : 1"
       inkscape:persp3d-origin="64 : 42.666667 : 1"
       id="perspective2689" />
    <linearGradient
       id="linearGradient3261">
      <stop
         style="stop-color:#ffffff;stop-opacity:0"
         offset="0"
         id="stop3263" />
      <stop
         style="stop-color:#ffffff;stop-opacity:0"
         offset="0.5"
         id="stop3269" />
      <stop
         style="stop-color:#ffffff;stop-opacity:1"
         offset="1"
         id="stop3265" />
    </linearGradient>
    <linearGradient
       id="linearGradient3219">
      <stop
         style="stop-color:#0e7309;stop-opacity:1"
         offset="0"
         id="stop3221" />
      <stop
         style="stop-color:#70d13e;stop-opacity:1"
         offset="1"
         id="stop3223" />
    </linearGradient>
    <linearGradient
       id="linearGradient3205">
      <stop
         style="stop-color:#2c8300;stop-opacity:1"
         offset="0"
         id="stop3207" />
      <stop
         style="stop-color:#3db800;stop-opacity:1"
         offset="0.25"
         id="stop3215" />
      <stop
         style="stop-color:#ffffff;stop-opacity:1"
         offset="0.5"
         id="stop3213" />
      <stop
         style="stop-color:#69cf35;stop-opacity:1"
         offset="1"
         id="stop3209" />
    </linearGradient>
    <linearGradient
       id="linearGradient3197">
      <stop
         style="stop-color:#002f32;stop-opacity:1"
         offset="0"
         id="stop3199" />
      <stop
         style="stop-color:#045b04;stop-opacity:1"
         offset="1"
         id="stop3201" />
    </linearGradient>
    <linearGradient
       id="linearGradient3339">
      <stop
         style="stop-color:#e8e8e8;stop-opacity:1"
         offset="0"
         id="stop3341" />
      <stop
         style="stop-color:#ffffff;stop-opacity:1"
         offset="0.5"
         id="stop3347" />
      <stop
         style="stop-color:#e8e8e8;stop-opacity:1"
         offset="1"
         id="stop3343" />
    </linearGradient>
    <linearGradient
       id="linearGradient3327">
      <stop
         style="stop-color:#ffffff;stop-opacity:1"
         offset="0"
         id="stop3329" />
      <stop
         style="stop-color:#fdd99a;stop-opacity:1"
         offset="0.5"
         id="stop3335" />
      <stop
         style="stop-color:#c39539;stop-opacity:1"
         offset="1"
         id="stop3331" />
    </linearGradient>
    <linearGradient
       id="linearGradient3319">
      <stop
         style="stop-color:#7d491f;stop-opacity:1"
         offset="0"
         id="stop3321" />
      <stop
         style="stop-color:#926600;stop-opacity:1"
         offset="1"
         id="stop3323" />
    </linearGradient>
    <linearGradient
       id="linearGradient3282">
      <stop
         style="stop-color:#ffffff;stop-opacity:0"
         offset="0"
         id="stop3284" />
      <stop
         style="stop-color:#ffffff;stop-opacity:1"
         offset="1"
         id="stop3286" />
    </linearGradient>
    <linearGradient
       id="linearGradient14709">
      <stop
         style="stop-color:#ffffff;stop-opacity:1"
         offset="0"
         id="stop14711" />
      <stop
         style="stop-color:#5eb2ff;stop-opacity:1"
         offset="1"
         id="stop14713" />
    </linearGradient>
    <linearGradient
       id="linearGradient14685">
      <stop
         style="stop-color:#0917a0;stop-opacity:1"
         offset="0"
         id="stop14687" />
      <stop
         style="stop-color:#0345f4;stop-opacity:1"
         offset="1"
         id="stop14689" />
    </linearGradient>
    <linearGradient
       x1="96.125"
       y1="11.1875"
       x2="96.125"
       y2="52.101334"
       id="linearGradient14691"
       xlink:href="#linearGradient14685"
       gradientUnits="userSpaceOnUse" />
    <radialGradient
       cx="546.31165"
       cy="705.48486"
       r="25.28125"
       fx="546.31165"
       fy="705.48486"
       id="radialGradient14715"
       xlink:href="#linearGradient14709"
       gradientUnits="userSpaceOnUse"
       gradientTransform="matrix(2.032821,0,-3.289062e-8,1.717338,-565.7183,-518.4991)" />
    <linearGradient
       x1="96.381813"
       y1="30.666691"
       x2="96.381813"
       y2="13.187494"
       id="linearGradient3302"
       xlink:href="#linearGradient3282"
       gradientUnits="userSpaceOnUse"
       gradientTransform="matrix(0.934851,0,0,0.934851,453.691,638.9931)" />
    <linearGradient
       x1="41.945538"
       y1="46.665127"
       x2="41.945538"
       y2="82.333244"
       id="linearGradient3325"
       xlink:href="#linearGradient3319"
       gradientUnits="userSpaceOnUse" />
    <radialGradient
       cx="53.60223"
       cy="59.728882"
       r="17.834057"
       fx="53.60223"
       fy="59.728882"
       id="radialGradient3333"
       xlink:href="#linearGradient3327"
       gradientUnits="userSpaceOnUse"
       gradientTransform="matrix(0,1.655849,-1.639188,0,152.1501,-32.92373)" />
    <linearGradient
       x1="28.429483"
       y1="61.798298"
       x2="58.95916"
       y2="61.798298"
       id="linearGradient3345"
       xlink:href="#linearGradient3339"
       gradientUnits="userSpaceOnUse" />
    <linearGradient
       x1="83.28125"
       y1="123.09795"
       x2="83.28125"
       y2="66.310989"
       id="linearGradient3203"
       xlink:href="#linearGradient3197"
       gradientUnits="userSpaceOnUse" />
    <radialGradient
       cx="491.52231"
       cy="670.92523"
       r="36.426601"
       fx="491.52231"
       fy="670.92523"
       id="radialGradient3211"
       xlink:href="#linearGradient3205"
       gradientUnits="userSpaceOnUse"
       gradientTransform="matrix(0,2.023783,-1.958054,0,1805.23,-312.4948)" />
    <linearGradient
       x1="517.02167"
       y1="705.48438"
       x2="517.02167"
       y2="745.30084"
       id="linearGradient3240"
       xlink:href="#linearGradient3219"
       gradientUnits="userSpaceOnUse"
       gradientTransform="matrix(-1,0,0,1,983.3261,0)" />
    <linearGradient
       x1="517.02167"
       y1="705.48438"
       x2="517.02167"
       y2="745.30084"
       id="linearGradient3243"
       xlink:href="#linearGradient3219"
       gradientUnits="userSpaceOnUse"
       gradientTransform="translate(-0.120047,0)" />
    <radialGradient
       cx="479.68311"
       cy="709.6579"
       r="5.0058851"
       fx="479.68311"
       fy="709.6579"
       id="radialGradient3267"
       xlink:href="#linearGradient3261"
       gradientUnits="userSpaceOnUse"
       gradientTransform="matrix(1.233976,-0.151603,0.190797,1.552993,-247.6349,-320.152)" />
    <linearGradient
       gradientTransform="matrix(1.125651,0,0,1.125651,-477.8318,-158.0894)"
       y2="177.4375"
       x2="501.42935"
       y1="243.7218"
       x1="501.42935"
       gradientUnits="userSpaceOnUse"
       id="linearGradient2303"
       xlink:href="#linearGradient8091"
       inkscape:collect="always" />
    <linearGradient
       gradientTransform="matrix(1.125651,0,0,1.125651,-477.8318,-158.0894)"
       y2="177.4375"
       x2="431.2106"
       y1="243.7218"
       x1="431.2106"
       gradientUnits="userSpaceOnUse"
       id="linearGradient2301"
       xlink:href="#linearGradient3234"
       inkscape:collect="always" />
    <linearGradient
       gradientTransform="matrix(1.125651,0,0,1.125651,-477.8318,-158.0894)"
       y2="177.4375"
       x2="501.42935"
       y1="243.7218"
       x1="501.42935"
       gradientUnits="userSpaceOnUse"
       id="linearGradient2298"
       xlink:href="#linearGradient8091"
       inkscape:collect="always" />
    <linearGradient
       gradientTransform="matrix(1.125651,0,0,1.125651,-477.8318,-158.0894)"
       y2="211.24593"
       x2="456.39401"
       y1="208.11548"
       x1="480.27173"
       gradientUnits="userSpaceOnUse"
       id="linearGradient2296"
       xlink:href="#linearGradient9070"
       inkscape:collect="always" />
    <linearGradient
       gradientTransform="matrix(1.125651,0,0,1.125651,-477.8318,-158.0894)"
       y2="218.45189"
       x2="442.96814"
       y1="161.51843"
       x1="459.44681"
       gradientUnits="userSpaceOnUse"
       id="linearGradient2292"
       xlink:href="#linearGradient3226"
       inkscape:collect="always" />
    <linearGradient
       gradientTransform="matrix(1.125651,0,0,1.125651,-477.8318,-158.0894)"
       y2="177.4375"
       x2="501.42935"
       y1="243.7218"
       x1="501.42935"
       gradientUnits="userSpaceOnUse"
       id="linearGradient2286"
       xlink:href="#linearGradient8091"
       inkscape:collect="always" />
    <linearGradient
       gradientUnits="userSpaceOnUse"
       xlink:href="#linearGradient8091"
       id="linearGradient4393"
       y2="177.4375"
       x2="501.42935"
       y1="243.7218"
       x1="501.42935" />
    <linearGradient
       gradientUnits="userSpaceOnUse"
       xlink:href="#linearGradient3226"
       id="linearGradient4391"
       y2="218.45189"
       x2="442.96814"
       y1="161.51843"
       x1="459.44681" />
    <linearGradient
       gradientUnits="userSpaceOnUse"
       xlink:href="#linearGradient8091"
       id="linearGradient4389"
       y2="177.4375"
       x2="501.42935"
       y1="243.7218"
       x1="501.42935" />
    <linearGradient
       gradientUnits="userSpaceOnUse"
       xlink:href="#linearGradient9070"
       id="linearGradient4387"
       y2="211.24593"
       x2="456.39401"
       y1="208.11548"
       x1="480.27173" />
    <linearGradient
       gradientUnits="userSpaceOnUse"
       xlink:href="#linearGradient8091"
       id="linearGradient4385"
       y2="177.4375"
       x2="501.42935"
       y1="243.7218"
       x1="501.42935" />
    <linearGradient
       gradientUnits="userSpaceOnUse"
       xlink:href="#linearGradient3234"
       id="linearGradient4383"
       y2="177.4375"
       x2="431.2106"
       y1="243.7218"
       x1="431.2106" />
    <filter
       id="filter4341">
      <feGaussianBlur
         inkscape:collect="always"
         stdDeviation="0.33625764"
         id="feGaussianBlur4343" />
    </filter>
    <linearGradient
       gradientUnits="userSpaceOnUse"
       xlink:href="#linearGradient8091"
       id="linearGradient15009"
       y2="177.4375"
       x2="501.42935"
       y1="243.7218"
       x1="501.42935" />
    <linearGradient
       gradientUnits="userSpaceOnUse"
       xlink:href="#linearGradient3226"
       id="linearGradient15007"
       y2="218.45189"
       x2="442.96814"
       y1="161.51843"
       x1="459.44681" />
    <linearGradient
       gradientUnits="userSpaceOnUse"
       xlink:href="#linearGradient8091"
       id="linearGradient15005"
       y2="177.4375"
       x2="501.42935"
       y1="243.7218"
       x1="501.42935" />
    <linearGradient
       gradientUnits="userSpaceOnUse"
       xlink:href="#linearGradient9070"
       id="linearGradient15003"
       y2="211.24593"
       x2="456.39401"
       y1="208.11548"
       x1="480.27173" />
    <linearGradient
       gradientUnits="userSpaceOnUse"
       xlink:href="#linearGradient8091"
       id="linearGradient15001"
       y2="177.4375"
       x2="501.42935"
       y1="243.7218"
       x1="501.42935" />
    <linearGradient
       gradientUnits="userSpaceOnUse"
       xlink:href="#linearGradient3234"
       id="linearGradient14999"
       y2="177.4375"
       x2="431.2106"
       y1="243.7218"
       x1="431.2106" />
    <linearGradient
       gradientUnits="userSpaceOnUse"
       xlink:href="#linearGradient8091"
       id="linearGradient14963"
       y2="177.4375"
       x2="501.42935"
       y1="243.7218"
       x1="501.42935" />
    <linearGradient
       gradientUnits="userSpaceOnUse"
       xlink:href="#linearGradient3226"
       id="linearGradient14961"
       y2="218.45189"
       x2="442.96814"
       y1="161.51843"
       x1="459.44681" />
    <linearGradient
       gradientUnits="userSpaceOnUse"
       xlink:href="#linearGradient8091"
       id="linearGradient14959"
       y2="177.4375"
       x2="501.42935"
       y1="243.7218"
       x1="501.42935" />
    <linearGradient
       gradientUnits="userSpaceOnUse"
       xlink:href="#linearGradient9070"
       id="linearGradient14957"
       y2="211.24593"
       x2="456.39401"
       y1="208.11548"
       x1="480.27173" />
    <linearGradient
       gradientUnits="userSpaceOnUse"
       xlink:href="#linearGradient8091"
       id="linearGradient14955"
       y2="177.4375"
       x2="501.42935"
       y1="243.7218"
       x1="501.42935" />
    <linearGradient
       gradientUnits="userSpaceOnUse"
       xlink:href="#linearGradient3234"
       id="linearGradient14953"
       y2="177.4375"
       x2="431.2106"
       y1="243.7218"
       x1="431.2106" />
    <linearGradient
       gradientUnits="userSpaceOnUse"
       xlink:href="#linearGradient8091"
       id="linearGradient14951"
       y2="177.4375"
       x2="501.42935"
       y1="243.7218"
       x1="501.42935" />
    <linearGradient
       gradientUnits="userSpaceOnUse"
       xlink:href="#linearGradient3226"
       id="linearGradient14949"
       y2="218.45189"
       x2="442.96814"
       y1="161.51843"
       x1="459.44681" />
    <linearGradient
       gradientUnits="userSpaceOnUse"
       xlink:href="#linearGradient8091"
       id="linearGradient14947"
       y2="177.4375"
       x2="501.42935"
       y1="243.7218"
       x1="501.42935" />
    <linearGradient
       gradientUnits="userSpaceOnUse"
       xlink:href="#linearGradient9070"
       id="linearGradient14945"
       y2="211.24593"
       x2="456.39401"
       y1="208.11548"
       x1="480.27173" />
    <linearGradient
       gradientUnits="userSpaceOnUse"
       xlink:href="#linearGradient8091"
       id="linearGradient14943"
       y2="177.4375"
       x2="501.42935"
       y1="243.7218"
       x1="501.42935" />
    <linearGradient
       gradientUnits="userSpaceOnUse"
       xlink:href="#linearGradient3234"
       id="linearGradient14941"
       y2="177.4375"
       x2="431.2106"
       y1="243.7218"
       x1="431.2106" />
    <linearGradient
       gradientUnits="userSpaceOnUse"
       xlink:href="#linearGradient9070"
       id="linearGradient9076"
       y2="211.24593"
       x2="456.39401"
       y1="208.11548"
       x1="480.27173" />
    <linearGradient
       gradientUnits="userSpaceOnUse"
       xlink:href="#linearGradient8091"
       id="linearGradient8097"
       y2="177.4375"
       x2="501.42935"
       y1="243.7218"
       x1="501.42935" />
    <linearGradient
       gradientUnits="userSpaceOnUse"
       xlink:href="#linearGradient3234"
       id="linearGradient1496"
       y2="177.4375"
       x2="431.2106"
       y1="243.7218"
       x1="431.2106" />
    <linearGradient
       gradientUnits="userSpaceOnUse"
       xlink:href="#linearGradient3226"
       id="linearGradient3232"
       y2="218.45189"
       x2="442.96814"
       y1="161.51843"
       x1="459.44681" />
    <linearGradient
       id="linearGradient3226">
      <stop
         id="stop3228"
         offset="0"
         style="stop-color:#ffffff;stop-opacity:1" />
      <stop
         id="stop3230"
         offset="1"
         style="stop-color:#d8d8e5;stop-opacity:1" />
    </linearGradient>
    <linearGradient
       id="linearGradient3234">
      <stop
         id="stop3236"
         offset="0"
         style="stop-color:#bdbdcb;stop-opacity:1" />
      <stop
         id="stop3238"
         offset="1"
         style="stop-color:#b3b3c9;stop-opacity:1" />
    </linearGradient>
    <linearGradient
       id="linearGradient8091">
      <stop
         id="stop8093"
         offset="0"
         style="stop-color:#5b5b5a;stop-opacity:1" />
      <stop
         id="stop8095"
         offset="1"
         style="stop-color:#9191a7;stop-opacity:1" />
    </linearGradient>
    <linearGradient
       id="linearGradient9070">
      <stop
         id="stop9072"
         offset="0"
         style="stop-color:#dadae4;stop-opacity:1" />
      <stop
         id="stop9074"
         offset="1"
         style="stop-color:#a0a0b7;stop-opacity:1" />
    </linearGradient>
  </defs>
  <g
     transform="matrix(-0.6787644,0,0,0.7009488,392.26343,-422.41248)"
     id="user">
    <path
       d="M 492.35552,660.38391 C 477.63883,660.38391 465.66054,672.3622 465.66054,687.07889 C 465.66054,701.79558 477.63883,713.77387 492.35552,713.77387 C 507.0722,713.77387 519.05049,701.79558 519.05049,687.07889 C 519.05049,672.3622 507.0722,660.38391 492.35552,660.38391 z"
       style="opacity:0.5;fill:#000000;fill-opacity:1;stroke:none;stroke-width:1.33686185;stroke-linecap:square;stroke-linejoin:miter;stroke-miterlimit:4;stroke-dasharray:none;stroke-dashoffset:0;stroke-opacity:1"
       id="path3281" />
    <path
       d="M 492.27231,697.65234 C 470.63786,697.65234 453.08481,714.99981 453.08481,736.40234 L 453.08481,742.52734 C 453.08481,748.58021 459.36017,761.27734 481.99106,761.27734 L 502.52231,761.27734 C 525.15269,761.27734 531.45981,749.1977 531.45981,742.52734 L 531.45981,736.40234 C 531.45981,714.9998 513.90676,697.65234 492.27231,697.65234 z"
       style="opacity:0.5;fill:#000000;fill-opacity:1;stroke:none;stroke-width:1.5;stroke-linecap:square;stroke-linejoin:miter;stroke-miterlimit:4;stroke-dashoffset:0;stroke-opacity:1"
       id="path3283" />
    <path
       d="M 44.09375,59.46875 C 22.459298,59.46875 4.9062499,76.816217 4.90625,98.21875 L 4.90625,104.34375 C 4.90625,110.39662 11.181609,123.09375 33.8125,123.09375 L 54.34375,123.09375 C 76.97413,123.09375 83.281253,111.01411 83.28125,104.34375 L 83.28125,98.21875 C 83.28125,76.816214 65.728203,59.468751 44.09375,59.46875 z"
       transform="translate(447.4286,636.9336)"
       style="fill:url(#linearGradient3203);fill-opacity:1;stroke:none;stroke-width:1.5;stroke-linecap:square;stroke-linejoin:miter;stroke-miterlimit:4;stroke-dashoffset:0;stroke-opacity:1"
       id="path2214" />
    <path
       d="M 491.52231,698.56305 C 471.41209,698.56305 455.09571,714.47045 455.09571,734.09627 L 455.09571,739.71282 C 455.09571,745.26321 460.92895,756.90632 481.96541,756.90632 L 501.05016,756.90632 C 522.08615,756.90632 527.94891,745.82945 527.94891,739.71282 L 527.94891,734.09627 C 527.94891,714.47045 511.63253,698.56305 491.52231,698.56305 z"
       style="fill:url(#radialGradient3211);fill-opacity:1;stroke:none;stroke-width:1.5;stroke-linecap:square;stroke-linejoin:miter;stroke-miterlimit:4;stroke-dashoffset:0;stroke-opacity:1"
       id="path3193" />
    <path
       d="M 509.00874,705.87423 C 517.47238,714.93633 523.92402,729.97174 525.81425,744.5269"
       style="fill:#000000;fill-opacity:0;fill-rule:evenodd;stroke:url(#linearGradient3243);stroke-width:1.5;stroke-linecap:butt;stroke-linejoin:miter;stroke-miterlimit:4;stroke-dasharray:none;stroke-opacity:1"
       id="path3217" />
    <path
       d="M 474.19733,705.87423 C 465.73369,714.93633 459.28205,729.97174 457.39182,744.5269"
       style="fill:#000000;fill-opacity:0;fill-rule:evenodd;stroke:url(#linearGradient3240);stroke-width:1.5;stroke-linecap:butt;stroke-linejoin:miter;stroke-miterlimit:4;stroke-dasharray:none;stroke-opacity:1"
       id="path3227" />
    <path
       d="M 484.83052,710.07561 C 482.52782,712.04979 479.86829,713.60631 481.1093,718.35832 C 475.44857,717.2117 471.15959,709.46821 474.74722,703.9536 L 484.83052,710.07561 z"
       style="fill:#c5ffbd;fill-opacity:1;fill-rule:evenodd;stroke:#52aa5d;stroke-width:1px;stroke-linecap:butt;stroke-linejoin:miter;stroke-opacity:1"
       id="path3249" />
    <path
       d="M -36.972118,84.910487 L -42.381886,75.540496 L -31.562351,75.540495 L -36.972118,84.910487 z"
       transform="matrix(1.168871,0,0,1.168871,534.8187,623.4459)"
       style="opacity:1;fill:#ff2600;fill-opacity:1;stroke:#800000;stroke-width:0.85552669;stroke-linecap:square;stroke-linejoin:miter;stroke-miterlimit:4;stroke-dasharray:none;stroke-dashoffset:0;stroke-opacity:1"
       id="path3245" />
    <path
       d="M 497.96513,710.07561 C 500.74799,711.56963 504.00771,713.48627 502.7667,718.23828 C 507.7072,716.13135 511.63606,709.46821 508.04843,703.9536 L 497.96513,710.07561 z"
       style="fill:#a0ff74;fill-opacity:1;fill-rule:evenodd;stroke:#5eaa5e;stroke-width:1px;stroke-linecap:butt;stroke-linejoin:miter;stroke-opacity:1"
       id="path3247" />
    <path
       d="M 474.96875,704.65625 L 483.96875,710.125 C 482.98059,710.93983 481.95513,711.77074 481.21875,712.90625 C 480.46947,714.06165 480.23534,715.64781 480.5625,717.625 C 478.19333,716.89647 476.06898,714.98032 474.90625,712.5625 C 473.70299,710.0604 473.55794,707.15938 474.96875,704.65625 z"
       style="fill:url(#radialGradient3267);fill-opacity:1;fill-rule:evenodd;stroke:none;stroke-width:1px;stroke-linecap:butt;stroke-linejoin:miter;stroke-opacity:1"
       id="path3251" />
    <path
       d="M 76.945221,64.499184 C 76.94751,73.981116 69.261527,81.668954 59.779595,81.668954 C 50.297662,81.668954 42.611679,73.981116 42.613968,64.499184 C 42.611679,55.017252 50.297662,47.329414 59.779595,47.329414 C 69.261527,47.329414 76.94751,55.017252 76.945221,64.499184 z"
       transform="matrix(1.496041,0,0,1.496041,402.1703,589.3342)"
       style="opacity:1;fill:url(#radialGradient3333);fill-opacity:1;stroke:url(#linearGradient3325);stroke-width:1.33686185;stroke-linecap:square;stroke-linejoin:miter;stroke-miterlimit:4;stroke-dasharray:none;stroke-dashoffset:0;stroke-opacity:1"
       id="path2309" />
  </g>
  <g
     transform="matrix(0.2375377,0,0,0.1388797,-29.842401,61.311112)"
     id="book">
    <path
       style="fill:#001873;fill-opacity:1;fill-rule:evenodd;stroke:#fefefe;stroke-width:5;stroke-linecap:butt;stroke-linejoin:miter;stroke-miterlimit:4;stroke-opacity:1"
       sodipodi:nodetypes="cccccccc"
       id="path14684"
       d="M 264.66115,311.01114 C 289.60037,352.91582 311.99478,387.695 336.934,429.59969 C 388.16969,404.99978 409.88547,396.68669 454.50463,381.24813 C 474.01491,386.84673 494.54311,376.66746 502.85619,369.03299 C 539.67123,363.94335 582.59383,357.83579 623.98955,353.76408 C 622.97162,347.14755 625.00748,344.60274 623.98955,337.98621 C 581.06694,306.60011 537.63538,273.68712 494.71277,242.30102 C 416.33235,264.52577 343.04157,288.78638 264.66115,311.01114 z" />
    <path
       style="fill:#ffffff;fill-opacity:1;fill-rule:evenodd;stroke:#001873;stroke-width:3.75;stroke-linecap:butt;stroke-linejoin:miter;stroke-miterlimit:4;stroke-opacity:1"
       sodipodi:nodetypes="ccccccccc"
       id="path14685"
       d="M 274.33146,312.53802 C 296.72587,348.16548 319.12027,383.79295 341.51468,419.42041 C 381.21385,398.5529 428.33666,367.46993 465.20346,375.77302 C 463.41399,363.50114 469.18224,356.62763 476.39007,348.67445 C 416.502,338.32552 386.6428,372.7654 344.0595,389.39155 C 343.21123,398.04393 342.36295,406.69632 341.51468,415.3487 C 342.70226,407.03563 342.87191,398.72255 344.05949,390.40948 C 324.71887,360.38062 301.81551,322.71729 282.47489,292.68843 C 276.19766,295.74221 275.51905,305.41253 274.33146,312.53802 z" />
    <path
       style="fill:#ffffff;fill-opacity:1;fill-rule:evenodd;stroke:#001873;stroke-width:3.75;stroke-linecap:butt;stroke-linejoin:miter;stroke-miterlimit:4;stroke-opacity:1"
       sodipodi:nodetypes="csccccc"
       id="path14686"
       d="M 470.79147,360.38062 C 487.24796,328.99452 500.5941,326.77716 532.88505,322.20833 C 558.18346,318.62887 575.92056,319.47328 601.70806,318.28569 C 599.50255,325.7505 603.29171,335.61104 606.6848,345.62066 C 582.42419,346.63859 563.25322,345.1117 536.4478,348.67444 C 518.63406,347.14755 502.85618,358.34476 491.15002,370.05092 C 492.16795,348.33514 479.95281,361.73786 470.79147,360.38062 z" />
    <path
       style="fill:#ffffff;fill-opacity:1;fill-rule:evenodd;stroke:#001873;stroke-width:2.5;stroke-linecap:butt;stroke-linejoin:miter;stroke-miterlimit:4;stroke-opacity:1"
       sodipodi:nodetypes="ccccsc"
       id="path14687"
       d="M 396.48276,273.85678 C 421.93095,298.45669 447.37914,323.05661 472.82733,347.65652 C 411.15789,340.02206 378.24489,377.43089 343.55053,389.64603 C 323.53129,357.92062 302.23964,324.15936 282.2204,292.43395 C 307.32928,280.38848 323.90617,260.543 360.34634,257.56994 C 374.47078,256.41756 385.45522,265.88301 396.48276,273.85678 z" />
    <path
       style="fill:#ffffff;fill-opacity:1;fill-rule:evenodd;stroke:#001873;stroke-width:2.5;stroke-linecap:butt;stroke-linejoin:miter;stroke-miterlimit:4;stroke-opacity:1"
       sodipodi:nodetypes="ccccc"
       id="path950"
       d="M 476.49663,348.91674 C 495.45093,316.88638 534.55916,321.56497 601.37906,316.52649 C 566.10967,292.53371 530.84028,268.54092 495.57089,244.54814 C 449.38479,253.54544 418.31414,234.47117 393.36165,270.10046 L 476.49663,348.91674 z" />
  </g>
  <g
     inkscape:groupmode="layer"
     id="layer1"
     inkscape:label="beams"
     style="display:inline" />
  <g
     id="g2740"
     transform="translate(0.8257406,-0.3914198)">
    <path
       id="path2736"
       d="M 41.16998,46.504266 C 36.47855,42.145759 33.557878,36.027628 33.557879,29.25 C 33.557879,22.472372 36.478551,16.346057 41.169981,11.979558"
       style="fill:none;fill-rule:evenodd;stroke:#0000ff;stroke-width:1.05503094px;stroke-linecap:butt;stroke-linejoin:miter;stroke-opacity:1" />
    <path
       id="path2732"
       d="M 75.679008,11.977975 C 80.36344,16.344577 83.27663,22.471554 83.276629,29.25 C 83.276629,36.028447 80.363439,42.147236 75.679009,46.505845"
       style="fill:none;fill-rule:evenodd;stroke:#0000ff;stroke-width:1.05503094px;stroke-linecap:butt;stroke-linejoin:miter;stroke-opacity:1" />
    <path
       id="path2728"
       d="M 79.358091,50.186068 C 85.252263,44.938385 88.932879,37.499507 88.932879,29.25 C 88.932879,20.999467 85.251347,13.551347 79.355892,8.295458"
       style="fill:none;fill-rule:evenodd;stroke:#0000ff;stroke-width:1.05503094px;stroke-linecap:butt;stroke-linejoin:miter;stroke-opacity:1" />
    <path
       id="path2724"
       d="M 37.491445,8.3118951 C 31.606743,13.56687 27.932879,21.008064 27.932879,29.25 C 27.932878,37.490967 31.605879,44.922982 37.48937,50.169763"
       style="fill:none;fill-rule:evenodd;stroke:#0000ff;stroke-width:1.05503094px;stroke-linecap:butt;stroke-linejoin:miter;stroke-opacity:1" />
    <path
       id="path2720"
       d="M 33.224093,54.437317 C 26.676911,48.009403 22.620379,39.096915 22.620379,29.25 C 22.620379,19.403085 26.676912,10.482694 33.224095,4.0469228"
       style="fill:none;fill-rule:evenodd;stroke:#0000ff;stroke-width:1.05503094px;stroke-linecap:butt;stroke-linejoin:miter;stroke-opacity:1" />
    <path
       id="path2691"
       d="M 83.627487,4.0329949 C 90.18299,10.469821 94.245379,19.395979 94.245379,29.25 C 94.245379,39.104021 90.18299,48.022267 83.627486,54.451231"
       style="fill:none;fill-rule:evenodd;stroke:#0000ff;stroke-width:1.05503094px;stroke-linecap:butt;stroke-linejoin:miter;stroke-opacity:1" />
    <g
       transform="matrix(-0.9998499,-1.7326002e-2,-1.7326002e-2,0.9998499,125.76745,2.0734675)"
       id="g3568">
      <g
         id="g3564"
         transform="matrix(1,0,0,0.5277878,0,13.751716)">
        <rect
           style="fill:#ffffff;fill-opacity:1;stroke:#000096;stroke-opacity:1"
           id="rect3542"
           width="2.6106012"
           height="31.159863"
           x="65.350822"
           y="29.621897"
           ry="2.4851427" />
        <rect
           ry="2.4017327"
           y="30.776489"
           x="65.242058"
           height="30.114031"
           width="1.7124799"
           id="rect3544"
           style="fill:#000096;fill-opacity:1;stroke:none;stroke-width:0.78248012;stroke-opacity:1" />
      </g>
      <path
         transform="translate(-130.01512,31.752867)"
         d="M 200.7296,-3.5169396 A 4.2480187,4.2480187 0 1 1 192.23356,-3.5169396 A 4.2480187,4.2480187 0 1 1 200.7296,-3.5169396 z"
         sodipodi:ry="4.2480187"
         sodipodi:rx="4.2480187"
         sodipodi:cy="-3.5169396"
         sodipodi:cx="196.48158"
         id="path3546"
         style="fill:#000096;fill-opacity:1;stroke:none;stroke-opacity:1"
         sodipodi:type="arc" />
      <path
         transform="translate(-113.53795,25.05902)"
         d="M 182.19279,1.6321738 A 0.72945774,0.72945774 0 1 1 180.73388,1.6321738 A 0.72945774,0.72945774 0 1 1 182.19279,1.6321738 z"
         sodipodi:ry="0.72945774"
         sodipodi:rx="0.72945774"
         sodipodi:cy="1.6321738"
         sodipodi:cx="181.46333"
         id="path3548"
         style="fill:#ffffff;fill-opacity:1;stroke:none;stroke-opacity:1"
         sodipodi:type="arc" />
    </g>
  </g>
</svg>
